<svg viewBox="0 0 1024 1024" xmlns="http://www.w3.org/2000/svg"><path d="M908.682 797.44c139.17-191.525 122.422-461.107-50.286-633.818-176.21-176.21-453.266-190.09-645.372-41.652-27.817-32.566-54.723-65.058-78.8-95.832L30.953 129.413c30.778 23.828 63.45 50.248 96.266 77.522-151.767 192.24-138.96 471.937 38.483 649.38 172.13 172.13 440.475 189.33 631.878 51.674l40.78 40.777 154.423 38.458-43.596-149.283-40.504-40.502zm-248.5-248.5L426.96 315.723l87.315-87.32-63.667-63.673c180.697-9.013 330.398 207.333 209.57 384.208zM446.374 164.97L342.652 268.703c-12.597-13.938-25.675-28.458-39.017-43.372 46.748-38.523 95.723-57.103 142.74-60.36zM234.065 298.07c14.496 12.654 28.604 25.077 42.134 37.09L168.44 442.922l65.666 65.67 82.032-82.037L794.61 905.02C412.147 1162.465-75.257 688.29 234.064 298.07z"/></svg>